<?xml version="1.0" encoding="UTF-8"?>
<svg width="280px" height="54px" viewBox="0 0 280 54" version="1.1" xmlns="http://www.w3.org/2000/svg" xmlns:xlink="http://www.w3.org/1999/xlink">
    <title>2AB54532-1644-4F9C-B78A-2554A9563FCD</title>
    <g id="Page-1" stroke="none" stroke-width="1" fill="none" fill-rule="evenodd">
        <g id="login" transform="translate(-130.000000, -23.000000)" fill="#D92756">
            <g id="Combined-Shape" transform="translate(130.000000, 23.000000)">
                <path d="M26.7177273,0.0416818182 C41.4342727,0.0416818182 53.3645,11.9719091 53.3645,26.6890909 C53.3645,41.4062727 41.4342727,53.3368182 26.7177273,53.3368182 C12.0011818,53.3368182 0.0709545455,41.4062727 0.0709545455,26.6890909 C0.0709545455,11.9722273 12.0011818,0.0416818182 26.7177273,0.0416818182 Z M30.3911364,13.2255455 C27.6573182,16.2415909 24.8334545,22.4003182 24.8334545,22.4003182 C24.8334545,22.4003182 24.7126877,22.1194684 24.4829986,21.6547028 L24.3469826,21.3835374 C23.4424815,19.6060589 21.3299927,15.9471518 18.4602727,14.0957727 C14.8953868,11.7957347 11.9191971,14.1979224 11.0406279,15.0456808 L10.895918,15.1899766 C10.8308583,15.2571935 10.7917442,15.3012242 10.7805134,15.314034 L10.7789545,15.3146818 C10.9290718,15.1793795 14.021092,12.5154058 18.3546364,21.2927273 C23.5394091,31.7949545 25.2356364,50.5081818 25.2356364,50.5081818 L25.2392921,50.4720119 C25.3590731,49.2975053 28.4398991,19.8652491 37.0700909,12.9060909 C41.0546818,9.69277273 44.8976818,12.6216364 44.8976818,12.6216364 C44.8976818,12.6216364 44.8937822,12.6183332 44.8860839,12.6119538 L44.8516932,12.5838136 C44.1983003,12.0546926 36.7072717,6.25693939 30.3911364,13.2255455 Z M173.525864,33.4787727 C174.697409,33.4787727 175.625864,34.041 175.625864,35.1651364 L175.625864,35.2500909 C175.625864,35.9609091 175.340773,36.449 174.011409,37.3504091 L173.716136,37.5521364 L175.625864,39.6206364 C175.910636,39.1112273 176.037273,38.4538636 176.037273,37.7535455 L176.037273,37.6052727 C176.037273,37.4885 176.090091,37.4353636 176.205909,37.4353636 L176.659955,37.4353636 C176.775773,37.4353636 176.838773,37.4885 176.838773,37.6052727 L176.838773,37.7535455 C176.838773,38.6762727 176.617636,39.5356818 176.174409,40.1933636 L177.113364,41.2010455 C177.155682,41.2433636 177.166182,41.286 177.166182,41.3175 C177.166182,41.3916364 177.102545,41.4342727 177.049727,41.4342727 L176.321727,41.4342727 C176.226591,41.4342727 176.195091,41.4021364 176.153091,41.3601364 L175.625545,40.7870909 C175.1085,41.2325455 174.412318,41.5087273 173.546864,41.5087273 C172.259818,41.5087273 170.961955,41.0101364 170.961955,39.5675 L170.961955,39.4822273 C170.961955,38.6021364 171.415682,38.0717273 172.480955,37.3930455 L172.407136,37.3080909 C171.415682,36.1623182 171.310364,35.7168636 171.310364,35.2500909 L171.310364,35.1651364 C171.310364,34.041 172.165,33.4787727 173.525864,33.4787727 Z M74.8847273,33.4784545 C76.5411818,33.4784545 77.7334091,34.4543182 77.7334091,36.8091818 L77.7334091,38.1776818 C77.7334091,40.5325455 76.5411818,41.5084091 74.8847273,41.5084091 C73.2279545,41.5084091 72.0252273,40.5325455 72.0252273,38.1776818 L72.0252273,36.8091818 C72.0252273,34.4546364 73.2279545,33.4784545 74.8847273,33.4784545 Z M192.053273,33.5427273 C192.116591,33.5529091 192.158909,33.6276818 192.158909,33.691 L192.158909,34.2214091 C192.158909,34.2955455 192.116591,34.3486818 192.042773,34.3486818 L190.006727,34.3486818 C188.888,34.3486818 188.708864,34.6458636 188.708864,35.4518182 L188.708864,36.9262727 L191.947955,36.9262727 C192.064091,36.9262727 192.159227,37.0217273 192.159227,37.1385 L192.159227,37.5416364 C192.159227,37.6580909 192.064091,37.7538636 191.947955,37.7538636 L188.708864,37.7538636 L188.708864,39.5356818 C188.708864,40.3419545 188.888,40.6391364 190.006727,40.6391364 L192.042773,40.6391364 C192.116591,40.6391364 192.158909,40.6919545 192.158909,40.7660909 L192.158909,41.307 C192.158909,41.3703182 192.116591,41.4447727 192.053273,41.4552727 C191.652364,41.4979091 190.618273,41.5084091 189.995909,41.5084091 C188.518591,41.5084091 187.748591,40.9461818 187.748591,39.5353636 L187.748591,35.4518182 C187.748591,34.041 188.518909,33.4787727 189.995909,33.4787727 C190.618273,33.4787727 191.609727,33.5000909 192.053273,33.5427273 Z M138.253818,33.5427273 C138.317136,33.5529091 138.359455,33.6276818 138.359455,33.691 L138.359455,34.2214091 C138.359455,34.2955455 138.317136,34.3486818 138.243318,34.3486818 L136.206955,34.3486818 C135.088545,34.3486818 134.909091,34.6458636 134.909091,35.4518182 L134.909091,36.9262727 L138.1485,36.9262727 C138.264318,36.9262727 138.359455,37.0217273 138.359455,37.1385 L138.359455,37.5416364 C138.359455,37.6580909 138.264318,37.7538636 138.1485,37.7538636 L134.909091,37.7538636 L134.909091,39.5356818 C134.909091,40.3419545 135.088227,40.6391364 136.206955,40.6391364 L138.243318,40.6391364 C138.317136,40.6391364 138.359455,40.6919545 138.359455,40.7660909 L138.359455,41.307 C138.359455,41.3703182 138.317136,41.4447727 138.253818,41.4552727 C137.852909,41.4979091 136.818818,41.5084091 136.196455,41.5084091 C134.719136,41.5084091 133.949136,40.9461818 133.949136,39.5353636 L133.949136,35.4518182 C133.949136,34.041 134.719455,33.4787727 136.196455,33.4787727 C136.819136,33.4787727 137.810909,33.5000909 138.253818,33.5427273 Z M108.816591,33.5427273 C108.879909,33.5529091 108.922227,33.6276818 108.922227,33.691 L108.922227,34.2214091 C108.922227,34.2955455 108.879909,34.3486818 108.806091,34.3486818 L106.769727,34.3486818 C105.651318,34.3486818 105.471864,34.6458636 105.471864,35.4518182 L105.471864,36.9262727 L108.711273,36.9262727 C108.827409,36.9262727 108.922227,37.0217273 108.922227,37.1385 L108.922227,37.5416364 C108.922227,37.6580909 108.827409,37.7538636 108.711273,37.7538636 L105.471864,37.7538636 L105.471864,39.5356818 C105.471864,40.3419545 105.651318,40.6391364 106.769727,40.6391364 L108.806091,40.6391364 C108.879909,40.6391364 108.922227,40.6919545 108.922227,40.7660909 L108.922227,41.307 C108.921909,41.3703182 108.879591,41.4447727 108.816591,41.4552727 C108.415682,41.4979091 107.381591,41.5084091 106.759227,41.5084091 C105.281909,41.5084091 104.511909,40.9461818 104.511909,39.5353636 L104.511909,35.4518182 C104.511909,34.041 105.282227,33.4787727 106.759227,33.4787727 C107.381909,33.4787727 108.373364,33.5000909 108.816591,33.5427273 Z M195.788091,33.4787727 C196.410455,33.4787727 197.223409,33.5424091 197.624318,33.6057273 C197.729636,33.6267273 197.803455,33.6798636 197.803455,33.7861364 L197.803455,34.2420909 C197.803455,34.3483636 197.729636,34.412 197.624318,34.412 L197.603318,34.412 C197.139091,34.3798636 196.400591,34.3483636 195.788409,34.3483636 C194.701818,34.3483636 194.237591,34.5815909 194.237591,35.3560455 C194.237591,35.8543182 194.585682,36.1515 195.3875,36.6392727 L196.358273,37.2228182 C197.582318,37.9546364 198.014727,38.5381818 198.014727,39.3864545 C198.014409,40.4049545 197.486864,41.5084091 195.4085,41.5084091 C194.67,41.5084091 194.121136,41.4342727 193.656909,41.3598182 C193.477773,41.3276818 193.456455,41.2856818 193.456455,41.1685909 L193.456455,40.7444545 C193.456455,40.6276818 193.540773,40.5748636 193.635591,40.5748636 L193.667409,40.5748636 C194.152636,40.6171818 194.922955,40.6381818 195.4085,40.6381818 C196.674545,40.6381818 197.012136,40.1290909 197.012136,39.3864545 C197.012136,38.8563636 196.706364,38.5591818 195.746091,37.9651364 L194.7225,37.3392727 C193.751727,36.7455455 193.2665,36.2046364 193.2665,35.3560455 C193.2665,34.0725 194.184455,33.4787727 195.788091,33.4787727 Z M183.127,33.4790909 C185.079045,33.4790909 186.324091,34.4864545 186.324091,36.7776818 L186.324091,38.2095 C186.324091,40.4794091 185.079045,41.5084091 183.127,41.5084091 C182.325182,41.5084091 181.512864,41.4552727 181.206773,41.4021364 C181.069636,41.3811364 180.985318,41.2961818 180.985318,41.1370909 L180.985318,33.8500909 C180.985318,33.7015 181.069955,33.6060455 181.206773,33.5850455 C181.512864,33.5319091 182.3255,33.4790909 183.127,33.4790909 Z M90.426,33.4784545 C92.0824545,33.4784545 93.275,34.4543182 93.275,36.8091818 L93.275,38.1776818 C93.275,40.5325455 92.0824545,41.5084091 90.426,41.5084091 C88.7695455,41.5084091 87.5668182,40.5325455 87.5668182,38.1776818 L87.5668182,36.8091818 C87.5668182,34.4546364 88.7695455,33.4784545 90.426,33.4784545 Z M120.1165,33.4790909 C121.097773,33.4790909 121.720455,33.5640455 122.121045,33.6276818 C122.216182,33.6381818 122.3005,33.6805 122.3005,33.7867727 L122.3005,34.3168636 C122.3005,34.391 122.258182,34.4231364 122.163364,34.4231364 L122.121045,34.4231364 C121.498682,34.37 121.013455,34.349 120.1165,34.349 C119.135227,34.349 118.248773,34.8794091 118.248773,36.7885 L118.248773,38.2098182 C118.248773,39.9601364 119.040091,40.6493182 120.021364,40.6493182 C120.664727,40.6493182 121.097455,40.607 121.350727,40.586 L121.350727,37.5524545 C121.350727,37.4356818 121.424545,37.3402273 121.540682,37.3402273 L122.110545,37.3402273 C122.216182,37.3402273 122.311,37.4356818 122.311,37.5524545 L122.311,41.1164091 C122.311,41.2325455 122.2375,41.328 122.121364,41.3493182 C121.604318,41.4342727 121.013773,41.5084091 120.021682,41.5084091 C118.7025,41.5084091 117.288818,40.6388182 117.288818,38.2095 L117.288818,36.7881818 C117.288818,34.2105909 118.766136,33.4790909 120.1165,33.4790909 Z M204.798682,33.4790909 C205.779955,33.4790909 206.402318,33.5640455 206.803545,33.6276818 C206.898364,33.6381818 206.982364,33.6805 206.982364,33.7867727 L206.982364,34.3168636 C206.982364,34.391 206.940364,34.4231364 206.845227,34.4231364 L206.803227,34.4231364 C206.180545,34.37 205.695318,34.349 204.798364,34.349 C203.817091,34.349 202.930636,34.8794091 202.930636,36.7885 L202.930636,38.2098182 C202.930636,39.9601364 203.721955,40.6493182 204.703227,40.6493182 C205.346591,40.6493182 205.779636,40.607 206.032591,40.586 L206.032591,37.5524545 C206.032591,37.4356818 206.106409,37.3402273 206.222864,37.3402273 L206.792727,37.3402273 C206.898045,37.3402273 206.992865,37.4356818 206.992865,37.5524545 L206.992865,41.1164091 C206.993182,41.2325455 206.919364,41.328 206.803545,41.3493182 C206.2865,41.4342727 205.695636,41.5084091 204.703545,41.5084091 C203.384682,41.5084091 201.970682,40.6388182 201.970682,38.2095 L201.970682,36.7881818 C201.970682,34.2105909 203.448,33.4790909 204.798682,33.4790909 Z M62.6770455,33.5427273 C62.7403636,33.5529091 62.7826818,33.6276818 62.7826818,33.691 L62.7826818,34.2214091 C62.7826818,34.2955455 62.7403636,34.3486818 62.6665455,34.3486818 L60.6301818,34.3486818 C59.5117727,34.3486818 59.3323182,34.6458636 59.3323182,35.4518182 L59.3323182,36.9262727 L62.5717273,36.9262727 C62.6878636,36.9262727 62.7826818,37.0217273 62.7826818,37.1385 L62.7826818,37.5416364 C62.7826818,37.6580909 62.6878636,37.7538636 62.5717273,37.7538636 L59.3323182,37.7538636 L59.3323182,39.5356818 C59.3323182,40.3419545 59.5117727,40.6391364 60.6301818,40.6391364 L62.6665455,40.6391364 C62.7403636,40.6391364 62.7826818,40.6919545 62.7826818,40.7660909 L62.7826818,41.307 C62.7826818,41.3703182 62.7403636,41.4447727 62.6770455,41.4552727 C62.2761364,41.4979091 61.2420455,41.5084091 60.6196818,41.5084091 C59.1423636,41.5084091 58.3723636,40.9461818 58.3723636,39.5353636 L58.3723636,35.4518182 C58.3723636,34.041 59.1423636,33.4787727 60.6196818,33.4787727 C61.2423636,33.4787727 62.2338182,33.5000909 62.6770455,33.5427273 Z M164.778727,33.4790909 C165.760318,33.4790909 166.382682,33.5640455 166.783591,33.6276818 C166.878727,33.6381818 166.963045,33.6805 166.963045,33.7867727 L166.963045,34.3168636 C166.963045,34.391 166.920727,34.4231364 166.825591,34.4231364 L166.783273,34.4231364 C166.160909,34.37 165.675682,34.349 164.778409,34.349 C163.797455,34.349 162.911,34.8794091 162.911,36.7885 L162.911,38.2098182 C162.911,39.9601364 163.702318,40.6493182 164.683591,40.6493182 C165.326955,40.6493182 165.76,40.607 166.013273,40.586 L166.013273,37.5524545 C166.013273,37.4356818 166.087091,37.3402273 166.203227,37.3402273 L166.772773,37.3402273 C166.878409,37.3402273 166.973545,37.4356818 166.973545,37.5524545 L166.973545,41.1164091 C166.973545,41.2325455 166.899727,41.328 166.783591,41.3493182 C166.266864,41.4342727 165.676,41.5084091 164.683909,41.5084091 C163.364727,41.5084091 161.951045,40.6388182 161.951045,38.2095 L161.951045,36.7881818 C161.951045,34.2105909 163.428364,33.4790909 164.778727,33.4790909 Z M144.067318,33.5427273 C144.130318,33.5529091 144.172636,33.6276818 144.172636,33.691 L144.172636,34.2214091 C144.172636,34.2955455 144.130318,34.3486818 144.056818,34.3486818 L142.020455,34.3486818 C140.902045,34.3486818 140.722591,34.6458636 140.722591,35.4518182 L140.722591,36.9262727 L143.962,36.9262727 C144.078136,36.9262727 144.172955,37.0217273 144.172955,37.1385 L144.172955,37.5416364 C144.172955,37.6580909 144.078136,37.7538636 143.962,37.7538636 L140.722591,37.7538636 L140.722591,39.5356818 C140.722591,40.3419545 140.902045,40.6391364 142.020455,40.6391364 L144.056818,40.6391364 C144.130318,40.6391364 144.172636,40.6919545 144.172636,40.7660909 L144.172636,41.307 C144.172636,41.3703182 144.130318,41.4447727 144.067318,41.4552727 C143.666091,41.4979091 142.632318,41.5084091 142.009955,41.5084091 C140.532318,41.5084091 139.762318,40.9461818 139.762318,39.5353636 L139.762318,35.4518182 C139.762318,34.041 140.532636,33.4787727 142.009955,33.4787727 C142.632318,33.4787727 143.623773,33.5000909 144.067318,33.5427273 Z M127.659955,33.5532273 C127.955545,33.5532273 128.008364,33.6063636 128.092364,33.7654545 L131.331773,39.9601364 L131.352773,39.9919545 C131.363273,39.9919545 131.363273,39.9709545 131.363273,39.9601364 L131.363273,33.7549545 C131.363273,33.649 131.447591,33.5532273 131.553227,33.5532273 L132.112591,33.5532273 C132.228409,33.5532273 132.302548,33.649 132.302548,33.7549545 L132.302548,41.1269091 C132.303182,41.2961818 132.165727,41.4342727 131.997091,41.4342727 L131.342909,41.4342727 C131.174273,41.4342727 131.057818,41.3706364 131.005,41.2646818 L127.744591,35.0385 C127.734091,35.0171818 127.723591,35.0063636 127.713091,35.0063636 C127.702591,35.0063636 127.702591,35.0168636 127.702591,35.0385 L127.702591,41.2328636 C127.702591,41.3391364 127.617955,41.4345909 127.512636,41.4345909 L126.963773,41.4345909 C126.858136,41.4345909 126.773818,41.4135909 126.773818,41.3073182 L126.773818,33.8504091 C126.773818,33.6808182 126.910955,33.5532273 127.079591,33.5532273 L127.659955,33.5532273 Z M147.686318,33.4790909 C149.353273,33.4790909 150.640636,34.0413182 150.640636,35.7595 L150.640636,35.8336364 C150.640636,37.0214091 149.944136,37.7217273 148.983864,37.9762727 L150.904091,41.2007273 C150.925091,41.2325455 150.935909,41.2640455 150.935909,41.2961818 C150.935909,41.3703182 150.883091,41.4342727 150.798773,41.4342727 L150.123591,41.4342727 C149.996955,41.4342727 149.933318,41.4342727 149.849318,41.2961818 L147.960273,38.1350455 L147.686318,38.1350455 C147.337909,38.1350455 147.084636,38.1245455 146.525591,38.1032273 L146.525591,41.2217273 C146.525591,41.3276818 146.452091,41.4339545 146.335636,41.4339545 L145.765773,41.4339545 C145.660455,41.4339545 145.575818,41.3385 145.575818,41.2217273 L145.575818,33.7972727 C145.575818,33.6486818 145.639136,33.5850455 145.829091,33.5640455 C146.283136,33.5109091 147.074136,33.4790909 147.686318,33.4790909 Z M85.8155455,33.5529091 C85.9211818,33.5529091 86.0055,33.6381818 86.0055,33.7546364 L86.0055,41.2220455 C86.0051818,41.328 85.9313636,41.4342727 85.8155455,41.4342727 L85.2351818,41.4342727 C85.1295455,41.4342727 85.0452273,41.3388182 85.0452273,41.2220455 L85.0452273,33.7546364 C85.0452273,33.6486818 85.1190455,33.5529091 85.2351818,33.5529091 L85.8155455,33.5529091 Z M200.240409,33.5529091 C200.346045,33.5529091 200.430682,33.6381818 200.430682,33.7546364 L200.430682,41.2220455 C200.430682,41.328 200.356545,41.4342727 200.240409,41.4342727 L199.660364,41.4342727 C199.554727,41.4342727 199.470409,41.3388182 199.470409,41.2220455 L199.470409,33.7546364 C199.470409,33.6486818 199.543909,33.5529091 199.660364,33.5529091 L200.240409,33.5529091 Z M124.832909,33.5529091 C124.938227,33.5529091 125.022864,33.6381818 125.022864,33.7546364 L125.022864,41.2220455 C125.022864,41.328 124.948727,41.4342727 124.832909,41.4342727 L124.252545,41.4342727 C124.147227,41.4342727 124.062591,41.3388182 124.062591,41.2220455 L124.062591,33.7546364 C124.062591,33.6486818 124.136409,33.5529091 124.252545,33.5529091 L124.832909,33.5529091 Z M111.211227,33.5532273 C111.5065,33.5532273 111.559318,33.6063636 111.643636,33.7654545 L114.883045,39.9601364 L114.904045,39.9919545 C114.911258,39.9919545 114.913662,39.9826212 114.914463,39.9731936 L114.914864,33.7549545 C114.914864,33.649 114.999182,33.5532273 115.1045,33.5532273 L115.663864,33.5532273 C115.78,33.5532273 115.853819,33.649 115.853819,33.7549545 L115.853819,41.1269091 C115.854136,41.2961818 115.717,41.4342727 115.548045,41.4342727 L114.893864,41.4342727 C114.725227,41.4342727 114.608773,41.3706364 114.556273,41.2646818 L111.295864,35.0385 C111.285364,35.0171818 111.274864,35.0063636 111.264045,35.0063636 C111.256833,35.0063636 111.254571,35.0110303 111.253864,35.0205522 L111.253545,41.2328636 C111.253545,41.3391364 111.169227,41.4345909 111.063591,41.4345909 L110.514727,41.4345909 C110.409091,41.4345909 110.324773,41.4135909 110.324773,41.3073182 L110.324773,33.8504091 C110.324773,33.6808182 110.461909,33.5532273 110.630864,33.5532273 L111.211227,33.5532273 Z M209.524955,33.5532273 C209.820545,33.5532273 209.873045,33.6063636 209.957364,33.7654545 L213.196773,39.9601364 L213.217773,39.9919545 C213.228273,39.9919545 213.228273,39.9709545 213.228273,39.9601364 L213.228273,33.7549545 C213.228273,33.649 213.312591,33.5532273 213.418227,33.5532273 L213.977591,33.5532273 C214.093409,33.5532273 214.167548,33.649 214.167548,33.7549545 L214.167548,41.1269091 C214.168182,41.2961818 214.031045,41.4342727 213.862091,41.4342727 L213.207909,41.4342727 C213.039273,41.4342727 212.922818,41.3706364 212.87,41.2646818 L209.609909,35.0385 C209.599409,35.0171818 209.588909,35.0063636 209.578091,35.0063636 C209.570879,35.0063636 209.568616,35.0110303 209.567909,35.0205522 L209.567591,41.2328636 C209.567591,41.3391364 209.482955,41.4345909 209.377318,41.4345909 L208.828773,41.4345909 C208.723455,41.4345909 208.638818,41.4135909 208.638818,41.3073182 L208.638818,33.8504091 C208.638818,33.6808182 208.775955,33.5532273 208.944591,33.5532273 L209.524955,33.5532273 Z M95.6168182,33.5532273 C95.9120909,33.5532273 95.9649091,33.6063636 96.0492273,33.7654545 L99.2886364,39.9601364 L99.3096364,39.9919545 C99.3168485,39.9919545 99.3192525,39.9826212 99.3200539,39.9731936 L99.3204545,33.7549545 C99.3204545,33.649 99.4047727,33.5532273 99.5104091,33.5532273 L100.069455,33.5532273 C100.185591,33.5532273 100.25941,33.649 100.25941,33.7549545 L100.25941,41.1269091 C100.259727,41.2961818 100.122591,41.4342727 99.9536364,41.4342727 L99.2994545,41.4342727 C99.1305,41.4342727 99.0143636,41.3706364 98.9615455,41.2646818 L95.7011364,35.0385 C95.6906364,35.0171818 95.6801364,35.0063636 95.6693182,35.0063636 C95.6585,35.0063636 95.6588182,35.0168636 95.6588182,35.0385 L95.6588182,41.2328636 C95.6588182,41.3391364 95.5745,41.4345909 95.4688636,41.4345909 L94.9203182,41.4345909 C94.8146818,41.4345909 94.7303636,41.4135909 94.7303636,41.3073182 L94.7303636,33.8504091 C94.7303636,33.6808182 94.8675,33.5532273 95.0364545,33.5532273 L95.6168182,33.5532273 Z M153.046409,33.5529091 C153.151727,33.5529091 153.236364,33.6381818 153.236364,33.7546364 L153.236364,41.2220455 C153.236364,41.328 153.162227,41.4342727 153.046409,41.4342727 L152.466045,41.4342727 C152.360409,41.4342727 152.275773,41.3388182 152.275773,41.2220455 L152.275773,33.7546364 C152.275773,33.6486818 152.349591,33.5529091 152.466045,33.5529091 L153.046409,33.5529091 Z M83.5472273,33.5532273 C83.6633636,33.5532273 83.7476818,33.6270455 83.7476818,33.7441364 L83.7476818,34.2109091 C83.7473636,34.3168636 83.6630455,34.3805 83.5469091,34.3805 L81.4895455,34.3805 L81.4895455,41.2220455 C81.4895455,41.328 81.4157273,41.4342727 81.2995909,41.4342727 L80.7192273,41.4342727 C80.6135909,41.4342727 80.5292727,41.3388182 80.5292727,41.2220455 L80.5292727,34.3805 L78.4719091,34.3805 C78.3557727,34.3805 78.2609545,34.3273636 78.2609545,34.2109091 L78.2609545,33.7441364 C78.2609545,33.6381818 78.3557727,33.5532273 78.4719091,33.5532273 L83.5472273,33.5532273 Z M65.1776364,33.5529091 C65.3675909,33.5529091 65.4519091,33.5955455 65.5155455,33.7333182 L67.2563182,37.3717273 C67.2986364,37.4671818 67.3301364,37.4881818 67.3829545,37.4881818 C67.4357727,37.4881818 67.4675909,37.4671818 67.5095909,37.3717273 L69.2503636,33.7333182 C69.3136818,33.5952273 69.398,33.5529091 69.5879545,33.5529091 L70.2739545,33.5529091 C70.4425909,33.5529091 70.5797273,33.691 70.5797273,33.8605909 L70.5797273,41.2220455 C70.5797273,41.3388182 70.4849091,41.4342727 70.3687727,41.4342727 L69.8517273,41.4342727 C69.7355909,41.4342727 69.6407727,41.3388182 69.6407727,41.2220455 L69.6407727,34.9319091 C69.6407727,34.9109091 69.6407727,34.9000909 69.6302727,34.9000909 C69.6197727,34.9000909 69.6197727,34.9000909 69.6092727,34.9210909 L68.1004545,38.0605909 C67.9948182,38.2728182 67.8895,38.3682727 67.6257273,38.3682727 L67.1405,38.3682727 C66.8767273,38.3682727 66.7714091,38.2728182 66.6657727,38.0605909 L65.1569545,34.9210909 C65.1464545,34.9000909 65.1464545,34.9000909 65.1359545,34.9000909 C65.1289545,34.9000909 65.1266212,34.9047576 65.1258434,34.9141852 L65.1254545,41.2220455 C65.1254545,41.3388182 65.0306364,41.4342727 64.9141818,41.4342727 L64.3971364,41.4342727 C64.281,41.4342727 64.1858636,41.3388182 64.1858636,41.2220455 L64.1858636,33.8605909 C64.1858636,33.691 64.3233182,33.5529091 64.4919545,33.5529091 L65.1776364,33.5529091 Z M155.873773,33.5532273 C156.169045,33.5532273 156.221864,33.6063636 156.306182,33.7654545 L159.545273,39.9601364 L159.566273,39.9919545 C159.573273,39.9919545 159.575606,39.9826212 159.576384,39.9731936 L159.576773,33.7549545 C159.576773,33.649 159.661409,33.5532273 159.767045,33.5532273 L160.326409,33.5532273 C160.442227,33.5532273 160.516045,33.649 160.516045,33.7549545 L160.516045,41.1269091 C160.516045,41.2961818 160.379227,41.4342727 160.210591,41.4342727 L159.556091,41.4342727 C159.387455,41.4342727 159.271318,41.3706364 159.2185,41.2646818 L155.958091,35.0385 C155.947591,35.0171818 155.937409,35.0063636 155.926591,35.0063636 C155.919379,35.0063636 155.917116,35.0110303 155.916409,35.0205522 L155.916091,41.2328636 C155.916091,41.3391364 155.831455,41.4345909 155.725818,41.4345909 L155.177273,41.4345909 C155.071955,41.4345909 154.987318,41.4135909 154.987318,41.3073182 L154.987318,33.8504091 C154.987318,33.6808182 155.124773,33.5532273 155.293409,33.5532273 L155.873773,33.5532273 Z M173.019,37.9762727 C172.175182,38.5063636 171.932091,38.8350455 171.932091,39.4819091 L171.932091,39.5671818 C171.932091,40.4262727 172.692227,40.7762727 173.546545,40.7762727 C174.222045,40.7762727 174.739091,40.5643636 175.118682,40.2353636 L173.019,37.9762727 Z M183.127,34.3060455 C182.630955,34.3060455 182.304182,34.3165455 181.955773,34.3381818 L181.955773,40.6598182 C182.293682,40.6808182 182.630955,40.6808182 183.127,40.6808182 C184.393045,40.6808182 185.363818,40.1185909 185.363818,38.2091818 L185.363818,36.7776818 C185.363818,34.8577727 184.393045,34.3060455 183.127,34.3060455 Z M90.426,34.349 C89.2760909,34.349 88.5372727,35.028 88.5372727,36.8095 L88.5372727,38.178 C88.5372727,39.9601364 89.2652727,40.6388182 90.426,40.6388182 C91.5762273,40.6388182 92.3042273,39.9598182 92.3042273,38.178 L92.3042273,36.8095 C92.3042273,35.0276818 91.5867273,34.349 90.426,34.349 Z M74.8847273,34.349 C73.7345,34.349 72.996,35.028 72.996,36.8095 L72.996,38.178 C72.996,39.9601364 73.724,40.6388182 74.8847273,40.6388182 C76.0346364,40.6388182 76.7626364,39.9598182 76.7626364,38.178 L76.7626364,36.8095 C76.7626364,35.0276818 76.0451364,34.349 74.8847273,34.349 Z M147.686318,34.3486818 L147.357465,34.3494239 C147.054292,34.3512792 146.7065,34.3577727 146.525591,34.3805 L146.525591,37.2867727 C146.989818,37.2975909 147.443545,37.3080909 147.686318,37.3080909 C148.983864,37.3080909 149.691182,36.9790909 149.691182,35.8336364 L149.691182,35.7595 C149.691182,34.6986818 149.005182,34.3486818 147.686318,34.3486818 Z M173.525545,34.1899091 C172.723727,34.1899091 172.175182,34.4339545 172.175182,35.1654545 L172.175182,35.2504091 C172.175182,35.6217273 172.228,35.9080909 173.071818,36.8416364 L173.177455,36.9580909 L173.536045,36.7353636 C174.559636,36.099 174.749273,35.8339545 174.749273,35.2504091 L174.749273,35.1654545 C174.749591,34.4654545 174.253545,34.1899091 173.525545,34.1899091 Z M239.365955,15.8569091 C240.752909,15.8569091 242.3785,16.0748636 243.721864,16.4232727 C244.220136,16.5540455 244.307,16.6845 244.307,17.0115909 L244.307,28.252 C244.306682,31.3450455 242.746318,32.6521364 239.430864,32.6521364 C237.610227,32.6521364 236.18,32.3905909 235.3785,32.1290455 C235.074955,32.0421818 234.944818,31.9110909 234.944818,31.6059545 L234.944818,30.4515909 C234.944818,30.2336364 235.118545,30.0812273 235.356864,30.0812273 L235.400455,30.0812273 C236.375364,30.1684091 238.434318,30.3424545 239.431182,30.3424545 C241.186591,30.3424545 241.446545,29.9068636 241.446545,28.4037727 L241.446545,28.2294091 C240.991227,28.3162727 239.886182,28.469 239.365955,28.469 C235.877091,28.469 234.186909,26.3995455 234.186909,23.0013636 L234.186909,21.3245455 C234.186909,17.9263636 235.877091,15.8569091 239.365955,15.8569091 Z M210.2835,15.8569091 C213.685818,15.8569091 215.462864,18.1659545 215.462864,21.2809545 L215.462864,23.0455909 C215.462864,26.1605909 213.685818,28.4696364 210.2835,28.4696364 C206.8815,28.4696364 205.104136,26.1605909 205.104136,23.0455909 L205.104136,21.2809545 C205.104136,18.1659545 206.8815,15.8569091 210.2835,15.8569091 Z M267.429591,15.8572273 C269.185318,15.8572273 270.181864,16.0535455 271.287227,16.2931364 C271.547182,16.3583636 271.677318,16.5327273 271.677318,16.7942727 L271.677318,18.0577727 C271.677318,18.3193182 271.525545,18.4717273 271.309182,18.4717273 L271.244273,18.4717273 C270.637182,18.3845455 268.903727,18.2101818 267.668545,18.2101818 C266.628091,18.2101818 266.173091,18.4497727 266.173091,19.1252727 C266.173091,19.4736818 266.498273,19.6916364 267.040136,20.0184091 L269.879273,21.7614091 C271.699591,22.8721818 271.959545,23.9613182 271.959545,25.0724091 C271.959227,26.9665455 270.550636,28.4696364 267.7115,28.4696364 C266.866409,28.4696364 265.046091,28.3608182 263.832545,28.0340455 C263.572591,27.9688182 263.420818,27.7944545 263.420818,27.5332273 L263.420818,26.2261364 C263.420818,26.0520909 263.572591,25.8777273 263.810909,25.8777273 L263.876136,25.8777273 C264.916273,26.0081818 266.866409,26.1173182 267.516773,26.1173182 C268.860455,26.1173182 269.055182,25.6597727 269.055182,25.0717727 C269.055182,24.6578182 268.795227,24.3962727 268.101591,23.9606818 L265.132955,22.1308182 C264.070864,21.4772727 263.312318,20.3881364 263.312318,19.1249545 C263.312318,16.9463636 264.677636,15.8572273 267.429591,15.8572273 Z M110.758136,15.8572273 C112.513545,15.8572273 113.510409,16.0535455 114.615773,16.2931364 C114.875727,16.3583636 115.005864,16.5327273 115.005864,16.7942727 L115.005864,18.0577727 C115.005864,18.3193182 114.854091,18.4717273 114.637409,18.4717273 L114.5725,18.4717273 C113.965727,18.3845455 112.232273,18.2101818 110.996773,18.2101818 C109.956318,18.2101818 109.501318,18.4497727 109.501318,19.1252727 C109.501318,19.4736818 109.826182,19.6916364 110.368364,20.0184091 L113.207182,21.7614091 C115.027818,22.8721818 115.287773,23.9613182 115.287773,25.0724091 C115.287773,26.9665455 113.878864,28.4696364 111.040045,28.4696364 C110.194955,28.4696364 108.374318,28.3608182 107.161091,28.0340455 C106.901136,27.9688182 106.749364,27.7944545 106.749364,27.5332273 L106.749364,26.2261364 C106.749364,26.0520909 106.901136,25.8777273 107.139455,25.8777273 L107.204364,25.8777273 C108.244818,26.0081818 110.194955,26.1173182 110.845,26.1173182 C112.188682,26.1173182 112.383727,25.6597727 112.383727,25.0717727 C112.383727,24.6578182 112.123773,24.3962727 111.430136,23.9606818 L108.461182,22.1308182 C107.399409,21.4772727 106.640864,20.3881364 106.640864,19.1249545 C106.640864,16.9463636 108.006182,15.8572273 110.758136,15.8572273 Z M256.681409,15.8565909 C260.0185,15.8565909 261.838818,18.1436818 261.838818,21.3897727 L261.838818,22.6096818 C261.8385,22.9580909 261.708682,23.1544091 261.405455,23.1544091 L254.340864,23.1544091 L254.340864,23.2199545 C254.340864,24.4834545 254.860773,25.9862273 256.941045,25.9862273 C258.523364,25.9862273 260.0185,25.8554545 260.928818,25.7682727 L260.993727,25.7682727 C261.210409,25.7682727 261.383818,25.8774091 261.383818,26.0950455 L261.383818,27.5329091 C261.383818,27.8813182 261.318909,28.0337273 260.928818,28.0989545 C259.519909,28.3605 258.674818,28.4693182 256.724364,28.4693182 C254.556909,28.4693182 251.480409,27.2933182 251.480409,23.0013636 L251.480409,21.3897727 C251.480409,17.9912727 253.365636,15.8565909 256.681409,15.8565909 Z M176.021364,15.8569091 C177.343091,15.8569091 178.318636,16.0093182 178.816909,16.1400909 C179.185364,16.2272727 179.272227,16.3580455 179.272227,16.7064545 L179.272227,18.1223636 C179.272227,18.3403182 179.098818,18.4491364 178.881818,18.4491364 L178.816909,18.4491364 C177.950182,18.3403182 177.430273,18.2967273 176.021364,18.2967273 C175.002864,18.2967273 173.941091,18.8850455 173.941091,21.1501818 L173.941091,23.1763636 C173.941091,25.4415 175.002864,26.0298182 176.021364,26.0298182 C177.430273,26.0298182 177.950182,25.9862273 178.816909,25.8774091 L178.881818,25.8774091 C179.098818,25.8774091 179.272227,25.9862273 179.272227,26.2038636 L179.272227,27.6197727 C179.272227,27.9685 179.185364,28.0992727 178.816909,28.1864545 C178.318636,28.3169091 177.343091,28.4696364 176.021364,28.4696364 C173.204182,28.4696364 171.080636,26.7269545 171.080636,23.1763636 L171.080636,21.1501818 C171.080636,17.5995909 173.2045,15.8569091 176.021364,15.8569091 Z M121.940955,15.8569091 C125.343273,15.8569091 127.120318,18.1659545 127.120318,21.2809545 L127.120318,23.0455909 C127.120318,26.1605909 125.343273,28.4696364 121.940955,28.4696364 C118.538636,28.4696364 116.761591,26.1605909 116.761591,23.0455909 L116.761591,21.2809545 C116.761591,18.1659545 118.538636,15.8569091 121.940955,15.8569091 Z M164.449727,15.8565909 C167.786818,15.8565909 169.607136,18.1436818 169.607136,21.3897727 L169.607136,22.6096818 C169.606818,22.9580909 169.477,23.1544091 169.173455,23.1544091 L162.108864,23.1544091 L162.108864,23.2199545 C162.108864,24.4834545 162.629091,25.9862273 164.709364,25.9862273 C166.291682,25.9862273 167.786818,25.8554545 168.696818,25.7682727 L168.761727,25.7682727 C168.978727,25.7682727 169.152136,25.8774091 169.152136,26.0950455 L169.152136,27.5329091 C169.152136,27.8813182 169.086909,28.0337273 168.696818,28.0989545 C167.288227,28.3605 166.443136,28.4693182 164.492682,28.4693182 C162.325227,28.4693182 159.248409,27.2933182 159.248409,23.0013636 L159.248409,21.3897727 C159.248409,17.9912727 161.133636,15.8565909 164.449727,15.8565909 Z M227.533091,15.8569091 C230.935409,15.8569091 232.712455,18.1659545 232.712455,21.2809545 L232.712455,23.0455909 C232.712773,26.1605909 230.935727,28.4696364 227.533091,28.4696364 C224.130773,28.4696364 222.354045,26.1605909 222.354045,23.0455909 L222.354045,21.2809545 C222.354045,18.1659545 224.130773,15.8569091 227.533091,15.8569091 Z M76.1278636,15.8569091 C79.5301818,15.8569091 81.3072273,18.1659545 81.3072273,21.2809545 L81.3072273,23.0455909 C81.3072273,26.1605909 79.5301818,28.4696364 76.1278636,28.4696364 C72.7255455,28.4696364 70.9485,26.1605909 70.9485,23.0455909 L70.9485,21.2809545 C70.9485,18.1659545 72.7255455,15.8569091 76.1278636,15.8569091 Z M99.988,15.8569091 C103.39,15.8569091 105.167364,18.1659545 105.167364,21.2809545 L105.167364,23.0455909 C105.167364,26.1605909 103.39,28.4696364 99.988,28.4696364 C96.5856818,28.4696364 94.8086364,26.1605909 94.8086364,23.0455909 L94.8086364,21.2809545 C94.8086364,18.1659545 96.5856818,15.8569091 99.988,15.8569091 Z M85.6415,11.718 C85.8798182,11.718 86.0748636,11.914 86.0748636,12.1535909 L86.0748636,16.0093182 C86.8766818,15.9005 87.6352273,15.8569091 88.1554545,15.8569091 C91.6446364,15.8569091 93.3348182,17.9263636 93.3348182,21.3245455 L93.3348182,23.0016818 C93.3348182,26.4001818 91.6443182,28.4696364 88.1554545,28.4696364 C86.7685,28.4696364 85.1432273,28.2516818 83.7995455,27.9032727 C83.3012727,27.7728182 83.2144091,27.6420455 83.2144091,27.3152727 L83.2144091,12.1535909 C83.2144091,11.914 83.4094545,11.718 83.6477727,11.718 L85.6415,11.718 Z M139.970727,13.4387273 C140.165773,13.4387273 140.339182,13.6566818 140.339182,13.8743182 L140.339182,16.009 L143.395,16.009 C143.633318,16.009 143.828364,16.205 143.828364,16.4449091 L143.828364,17.7300455 C143.828364,17.9696364 143.633318,18.1656364 143.395,18.1656364 L140.339182,18.1656364 L140.339182,25.2015909 C140.339182,26.0727727 140.729591,26.2255 141.660909,26.2255 L143.373045,26.2255 C143.654955,26.2255 143.828364,26.3346364 143.828364,26.5522727 L143.828364,27.9026364 C143.828682,28.1209091 143.698545,28.2516818 143.416955,28.2952727 C142.896727,28.3824545 141.791682,28.4696364 140.881364,28.4696364 C138.735864,28.4696364 137.457091,27.7292273 137.457091,25.2019091 L137.457091,14.2230455 C137.457091,13.9834545 137.652136,13.8310455 137.890455,13.7874545 L139.905818,13.4387273 L139.970727,13.4387273 Z M63.2978182,11.9356364 C66.6352273,11.9356364 69.5392727,13.1335909 69.5392727,16.8588636 L69.5392727,17.0548636 C69.5392727,19.3639091 68.3906364,20.8017727 66.6135909,21.4985909 L70.0159091,27.8593636 C70.0591853,27.9245909 70.0591853,27.9901364 70.0591853,28.0337273 C70.0598182,28.1864545 69.9729545,28.2952727 69.7995455,28.2952727 L67.1557727,28.2952727 C66.9174545,28.2952727 66.8309091,28.0773182 66.7224091,27.8596818 L63.6016818,22.0436364 L63.2981364,22.0436364 C62.7346364,22.0436364 61.8679091,21.9784091 61.3693182,21.9564545 L61.3693182,27.86 C61.3693182,28.0995909 61.1959091,28.2955909 60.9575909,28.2955909 L58.7904545,28.2955909 C58.5521364,28.2955909 58.3570909,28.0995909 58.3570909,27.86 L58.3570909,12.8723636 C58.3570909,12.4367727 58.6170455,12.2843636 59.0504091,12.2188182 C60.1774091,12.0444545 61.7158182,11.9356364 63.2978182,11.9356364 Z M219.926955,11.718 C220.165273,11.718 220.338682,11.914 220.338682,12.1535909 L220.338682,27.8377273 C220.338682,28.0773182 220.165273,28.2952727 219.926955,28.2952727 L217.911273,28.2952727 C217.673273,28.2952727 217.478227,28.0773182 217.478227,27.8377273 L217.478227,12.1535909 C217.478227,11.914 217.673273,11.718 217.911273,11.718 L219.926955,11.718 Z M249.074636,16.0093182 C249.312955,16.0093182 249.508,16.2053182 249.508,16.4452273 L249.508,27.8380455 C249.508,28.0773182 249.312955,28.2952727 249.074636,28.2952727 L247.080909,28.2952727 C246.842273,28.2952727 246.647545,28.0773182 246.647545,27.8377273 L246.647545,16.4452273 C246.647545,16.2056364 246.842273,16.0093182 247.080909,16.0093182 L249.074636,16.0093182 Z M183.541273,11.718 C183.779591,11.718 183.974636,11.914 183.974636,12.1535909 L183.974636,16.0745455 C184.603364,15.9437727 185.339955,15.8565909 186.054909,15.8565909 C189.565727,15.8565909 191.126091,17.6864545 191.126091,20.4310909 L191.126091,27.8374091 C191.126409,28.0773182 190.931045,28.2952727 190.692409,28.2952727 L188.698682,28.2952727 C188.460364,28.2952727 188.265318,28.0773182 188.265318,27.8377273 L188.265318,20.4314091 C188.265318,18.9283182 187.636591,18.2531364 186.054909,18.2531364 C185.253091,18.2531364 184.472909,18.3183636 183.974636,18.4491364 L183.974636,27.8380455 C183.974636,28.0776364 183.779591,28.2955909 183.541273,28.2955909 L181.547545,28.2955909 C181.309227,28.2955909 181.114182,28.0776364 181.114182,27.8380455 L181.114182,12.1535909 C181.114182,11.914 181.309227,11.718 181.547545,11.718 L183.541273,11.718 Z M198.971182,15.8569091 C201.788364,15.8569091 203.305455,17.6648182 203.305455,20.3006364 L203.305455,27.8377273 C203.305455,28.0773182 203.132045,28.2952727 202.893409,28.2952727 L200.856727,28.2952727 C200.618409,28.2952727 200.445,28.0773182 200.445,27.8377273 L200.445,20.3006364 C200.445,19.2334545 200.228,18.2528182 198.971182,18.2528182 L197.6275,18.2528182 C196.370682,18.2528182 196.153682,19.2331364 196.153682,20.3006364 L196.153682,27.8377273 C196.153682,28.0773182 195.980273,28.2952727 195.741955,28.2952727 L193.704955,28.2952727 C193.466636,28.2952727 193.293227,28.0773182 193.293227,27.8377273 L193.293227,20.3006364 C193.293227,17.6648182 194.810318,15.8569091 197.6275,15.8569091 L198.971182,15.8569091 Z M132.581591,11.4564545 C133.188045,11.4564545 134.2285,11.5216818 134.900182,11.6308182 C135.225045,11.6744091 135.290273,11.7832273 135.290273,11.9792273 L135.290273,13.2643636 C135.290273,13.5039545 135.203727,13.6347273 134.965409,13.6347273 L133.080182,13.6347273 C132.083318,13.6347273 131.801409,13.8743182 131.801409,14.9418182 L131.801409,16.009 L134.856909,16.009 C135.095545,16.009 135.290273,16.205 135.290273,16.4445909 L135.290273,17.7516818 C135.290273,17.9915909 135.095227,18.1659545 134.856591,18.1659545 L131.801091,18.1659545 L131.801091,27.8377273 C131.801091,28.0773182 131.606045,28.2952727 131.367727,28.2952727 L129.374,28.2952727 C129.135682,28.2952727 128.919,28.0773182 128.919,27.8377273 L128.919,14.9418182 C128.919,12.1316364 130.587545,11.4564545 132.581591,11.4564545 Z M160.277727,12.1103182 C160.516045,12.1103182 160.711091,12.2846818 160.711091,12.5242727 L160.711091,14.245 C160.710773,14.4842727 160.515727,14.637 160.277409,14.637 L156.485,14.637 L156.485,27.8596818 C156.485,28.0992727 156.289955,28.2952727 156.051636,28.2952727 L153.906136,28.2952727 C153.667818,28.2952727 153.473091,28.0992727 153.473091,27.8596818 L153.473091,14.637 L149.680364,14.637 C149.442045,14.637 149.247318,14.4845909 149.247318,14.245 L149.247318,12.5242727 C149.247318,12.2846818 149.442045,12.1103182 149.680364,12.1103182 L160.277727,12.1103182 Z M88.1551364,18.2095455 C87.6349091,18.2095455 86.6816364,18.2750909 86.0745455,18.3619545 L86.0745455,25.9645909 C86.4862727,26.0517727 87.3746364,26.117 88.1551364,26.117 C90.0187273,26.117 90.4740455,24.7879545 90.4740455,23.0016818 L90.4740455,21.3245455 C90.4740455,19.5382727 90.0190455,18.2095455 88.1551364,18.2095455 Z M239.365636,18.2095455 C237.502045,18.2095455 237.047045,19.5382727 237.047045,21.3245455 L237.047045,23.002 C237.047045,24.7879545 237.502045,26.1166818 239.365636,26.1166818 C239.885864,26.1166818 240.839455,26.0298182 241.446227,25.9426364 L241.446227,18.4055455 C241.034182,18.3183636 240.145818,18.2095455 239.365636,18.2095455 Z M121.940636,18.3403182 C120.423545,18.3403182 119.621727,19.4946818 119.621727,21.2809545 L119.621727,23.0455909 C119.621727,24.8318636 120.423545,25.9862273 121.940636,25.9862273 C123.457727,25.9862273 124.259545,24.8318636 124.259545,23.0455909 L124.259545,21.2809545 C124.259545,19.4946818 123.457727,18.3403182 121.940636,18.3403182 Z M99.988,18.3403182 C98.4712273,18.3403182 97.6690909,19.4946818 97.6690909,21.2809545 L97.6690909,23.0455909 C97.6690909,24.8318636 98.4712273,25.9862273 99.988,25.9862273 C101.504773,25.9862273 102.306591,24.8318636 102.306591,23.0455909 L102.306591,21.2809545 C102.306591,19.4946818 101.504773,18.3403182 99.988,18.3403182 Z M76.1278636,18.3403182 C74.6107727,18.3403182 73.8089545,19.4946818 73.8089545,21.2809545 L73.8089545,23.0455909 C73.8089545,24.8318636 74.6107727,25.9862273 76.1278636,25.9862273 C77.6449545,25.9862273 78.4467727,24.8318636 78.4467727,23.0455909 L78.4467727,21.2809545 C78.4467727,19.4946818 77.6449545,18.3403182 76.1278636,18.3403182 Z M210.2835,18.3403182 C208.766727,18.3403182 207.964591,19.4946818 207.964591,21.2809545 L207.964591,23.0455909 C207.964591,24.8318636 208.766727,25.9862273 210.2835,25.9862273 C211.800273,25.9862273 212.602409,24.8318636 212.602409,23.0455909 L212.602409,21.2809545 C212.602409,19.4946818 211.800273,18.3403182 210.2835,18.3403182 Z M227.533409,18.3403182 C226.016636,18.3403182 225.214818,19.4946818 225.214818,21.2809545 L225.214818,23.0455909 C225.214818,24.8318636 226.016636,25.9862273 227.533409,25.9862273 C229.050182,25.9862273 229.852318,24.8318636 229.852318,23.0455909 L229.852318,21.2809545 C229.852318,19.4946818 229.050182,18.3403182 227.533409,18.3403182 Z M256.681091,18.3403182 C255.337727,18.3403182 254.362182,19.2986818 254.362182,21.0197273 L254.362182,21.1065909 L258.956409,21.1065909 L258.956409,21.0197273 C258.956409,19.3206364 258.024455,18.3403182 256.681091,18.3403182 Z M164.449409,18.3403182 C163.105409,18.3403182 162.130182,19.2986818 162.130182,21.0197273 L162.130182,21.1065909 L166.724409,21.1065909 L166.724409,21.0197273 C166.724409,19.3206364 165.792455,18.3403182 164.449409,18.3403182 Z M63.2981364,14.5278636 C62.8431364,14.5278636 61.7597273,14.5714545 61.3693182,14.6147273 L61.3693182,19.516 C61.7161364,19.5379545 62.9296818,19.5815455 63.2981364,19.5815455 C65.5305,19.5815455 66.549,18.9715909 66.549,17.0545455 L66.549,16.8588636 C66.549,15.225 65.4652727,14.5278636 63.2981364,14.5278636 Z M277.173273,11.8134545 C278.671909,11.8134545 279.864455,13.0025 279.864455,14.5215 C279.864455,16.0408182 278.671909,17.2460909 277.157045,17.2460909 C275.642182,17.2460909 274.433727,16.0408182 274.433727,14.5215 C274.433727,13.0025 275.642182,11.8134545 277.157045,11.8134545 L277.157045,11.8134545 Z M277.157364,12.3585 L277.141136,12.3585 C275.996955,12.3585 275.110818,13.3324545 275.110818,14.5215 C275.110818,15.7270909 275.996955,16.6848182 277.173273,16.6848182 C278.317455,16.7013636 279.187682,15.7274091 279.188,14.5383636 C279.188,13.3327727 278.317455,12.3585 277.157364,12.3585 L277.157364,12.3585 Z M277.141136,13.1345455 C277.640682,13.1345455 277.866273,13.2169545 278.043818,13.349 C278.204818,13.4645 278.317455,13.6627273 278.317455,13.9271364 C278.317455,14.2574091 278.075955,14.4721818 277.769864,14.5711364 L277.769864,14.5711364 L277.769864,14.6042273 C278.027591,14.6866364 278.156455,14.9014091 278.237591,15.2647727 C278.317773,15.6774545 278.382364,15.8263636 278.430727,15.9253182 L278.430727,15.9253182 L277.786091,15.9253182 C277.705591,15.8263636 277.657227,15.5953636 277.576727,15.2647727 C277.528364,14.9841364 277.366727,14.8517727 277.028818,14.8517727 L277.028818,14.8517727 L276.738636,14.8517727 L276.738636,15.9253182 L276.126136,15.9253182 L276.126136,13.2169545 C276.367636,13.1838636 276.706182,13.1345455 277.141136,13.1345455 Z M277.092773,13.5968636 C276.931773,13.5968636 276.819136,13.6134091 276.754545,13.6299545 L276.754545,13.6299545 L276.754545,14.406 L277.044727,14.406 C277.382636,14.406 277.656909,14.2905 277.656591,14.0095455 C277.656591,13.762 277.479682,13.5968636 277.092773,13.5968636 Z M249.139545,11.5872273 C249.377864,11.5872273 249.572909,11.7832273 249.572909,12.0231364 L249.572909,13.9398636 C249.572909,14.1794545 249.377864,14.3754545 249.139545,14.3754545 L247.037636,14.3754545 C246.799318,14.3754545 246.582636,14.1794545 246.582636,13.9398636 L246.582636,12.0231364 C246.582636,11.7835455 246.799318,11.5872273 247.037636,11.5872273 L249.139545,11.5872273 Z"></path>
            </g>
        </g>
    </g>
</svg>